<svg xmlns="http://www.w3.org/2000/svg" xmlns:xlink="http://www.w3.org/1999/xlink" width="1400" height="240" viewBox="0 0 1400 240">
  <defs>
    <clipPath id="clip-path">
      <rect id="長方形_1848" data-name="長方形 1848" width="1400" height="240" transform="translate(-8765 1184)" fill="#fff"/>
    </clipPath>
  </defs>
  <g id="マスクグループ_17" data-name="マスクグループ 17" transform="translate(8765 -1184)" clip-path="url(#clip-path)">
    <g id="グループ_4509" data-name="グループ 4509" transform="translate(-8767.91 1187)">
      <path id="パス_55549" data-name="パス 55549" d="M1214.2-20,1187,115h31.2l134.022-61.778L1321-13Z" fill="#f8da9c"/>
      <path id="パス_55550" data-name="パス 55550" d="M1193,151l-30.835,89H1047.288l27.03-97.078L1180,127Z" fill="#f7c877"/>
      <path id="パス_55551" data-name="パス 55551" d="M1198.2,177l-22.8,63L1345,246l91-10Z" fill="#bace66"/>
      <path id="パス_55552" data-name="パス 55552" d="M1350.227,66.782,1202,130v36.765L1323,197l23.26-102.819Z" fill="#aedbdc"/>
      <path id="パス_55553" data-name="パス 55553" d="M946.781-20V45.694L861.186,66.782,795.865,29.761,811.632-20Z" fill="#cee19f"/>
      <path id="パス_55554" data-name="パス 55554" d="M946.781,59.463,800,101l-53.69,76,14.641,63S928,259,928,255,946.781,59.463,946.781,59.463Z" fill="#f8da9c"/>
      <path id="パス_55555" data-name="パス 55555" d="M955.95,105l-9.1,64.036,109.047-.345L1067,130Z" fill="#cee19f"/>
      <path id="パス_55556" data-name="パス 55556" d="M948.847,176.818h103.047v15.024l-16.8,60.819-93.671-6.949Z" fill="#ef908a"/>
      <path id="パス_55557" data-name="パス 55557" d="M48-13V90.181h71L182-13Z" fill="#cee19f"/>
      <path id="パス_55558" data-name="パス 55558" d="M193.463-13,152.918,57.222l68.913,14.241,72.74-2L276.552-6Z" fill="#87beca"/>
      <path id="パス_55559" data-name="パス 55559" d="M147.464,65,84.7,151.38l140.726,46.046,30.1-77.469L209.379,76.371Z" fill="#f4d0c1"/>
      <path id="パス_55560" data-name="パス 55560" d="M-10,101l117.733-2L75,147,33,187l-52-53Z" fill="#f7c877"/>
      <path id="パス_55561" data-name="パス 55561" d="M75.185,158.508,36.774,200.726,33.985,256l178.782-19.6,11.978-30.69Z" fill="#9bd4d5"/>
      <path id="パス_55562" data-name="パス 55562" d="M231.832,82.045l63.634,61.574L397.06,126.444l27.146-54.1Z" fill="#cee19f"/>
      <path id="パス_55563" data-name="パス 55563" d="M284.552-13,303.7,65.463,450,60l58.674-25.769L529-13Z" fill="#f7c877"/>
      <path id="パス_55564" data-name="パス 55564" d="M264,130,216.745,253.553,340.2,246l-5.179-52.5Z" fill="#bace66"/>
      <path id="パス_55565" data-name="パス 55565" d="M313,151l-2,7.508,38.1,29.908L384,142Z" fill="#aedbdc"/>
      <path id="パス_55566" data-name="パス 55566" d="M438,79l75.936-35.306,103.983,9.528,14.641,73.222L524.441,196.416Z" fill="#aedbdc"/>
      <path id="パス_55567" data-name="パス 55567" d="M431,87l-42,69,98.9,105.553,29.535-56.777Z" fill="#f4d0c1"/>
      <path id="パス_55568" data-name="パス 55568" d="M347.1,206l34.193-40.5,77.923,90.053L396,276l-42-6Z" fill="#ef908a"/>
      <path id="パス_55569" data-name="パス 55569" d="M541.335-13,521.062,26.231,531.2,37.59l101.362,6.1,81.615-17.463L740-26Z" fill="#bace66"/>
      <path id="パス_55570" data-name="パス 55570" d="M650.291,49.222l-21.731,10.8,19.731,104.483,85.489,9.015L781.845,105,723.779,31.59Z" fill="#ef908a"/>
      <path id="パス_55571" data-name="パス 55571" d="M740,37.59h43.476l63.069,34.757L839,83,787.273,94.181Z" fill="#aedbdc"/>
      <path id="パス_55572" data-name="パス 55572" d="M754.194-26,729,18l11,8.231h37.845L801.39-20Z" fill="#f4d0c1"/>
      <path id="パス_55573" data-name="パス 55573" d="M630.531,139l-88.07,54.426-21.4,20.074L507.431,240h147.22Z" fill="#f7c877"/>
      <path id="パス_55574" data-name="パス 55574" d="M654.651,176.277l-6.361,12.139L669.726,246,748,240l-13-51.584L714.175,183.5Z" fill="#87beca"/>
      <path id="パス_55575" data-name="パス 55575" d="M1202-20l-20.962,92.347-93.588,5.435L1066,67l-39.256-87Z" fill="#aedbdc"/>
      <path id="パス_55576" data-name="パス 55576" d="M955.2-20c-1.246,2.131,4,117.395,4,117.395l39.943,4.262L1058,72.465,1015.6-20Z" fill="#f4d0c1"/>
      <path id="パス_55577" data-name="パス 55577" d="M1017,100.887l4,14.075,51.908,5.093,5.642-33.3L1066.977,80Z" fill="#87beca"/>
      <path id="パス_55578" data-name="パス 55578" d="M1089.192,86.181l-8.136,33.874L1084.124,134,1176,119l6-38Z" fill="#ef908a"/>
      <path id="パス_55579" data-name="パス 55579" d="M1335.116-13l29.751,68.5,51.95,9.963L1415.254-20Z" fill="#f4d0c1"/>
      <path id="パス_55580" data-name="パス 55580" d="M1375.185,65l-14.762,12.782-15.465,65.837,70.3,14.889,21.089-80.726Z" fill="#cee19f"/>
      <path id="パス_55581" data-name="パス 55581" d="M1342.958,152.508,1333.116,201l81.7,21,11.524-53.723Z" fill="#ef908a"/>
      <path id="パス_55582" data-name="パス 55582" d="M-31.436,135.619l60.019,58.8-2,59.137-70.672-.892Z" fill="#cee19f"/>
      <path id="パス_55583" data-name="パス 55583" d="M39.985-13V77L27.754,92.088-25,94.181-25.813,0Z" fill="#ef908a"/>
    </g>
  </g>
</svg>
